<?xml version="1.0" standalone="no"?>
<!DOCTYPE svg PUBLIC "-//W3C//DTD SVG 1.1//EN" "http://www.w3.org/Graphics/SVG/1.1/DTD/svg11.dtd" >
<!--
2013-9-30: Created.
-->
<svg>
<metadata>
Created by iconfont
</metadata>
<defs>

<font id="iconfont" horiz-adv-x="1024" >
  <font-face
    font-family="iconfont"
    font-weight="500"
    font-stretch="normal"
    units-per-em="1024"
    ascent="896"
    descent="-128"
  />
    <missing-glyph />
    
    <glyph glyph-name="xiaoxi" unicode="&#59002;" d="M511.702003 896C230.045029 896 0.303497 688.338231 0.303497 432.936974c0-115.168763 46.5455-224.967583 131.878583-310.299666V-98.749314c0-11.337878 6.562929-21.481769 16.707821-26.255718 4.176955-1.789981 8.35391-2.983968 12.530865-2.983968 6.563929 0 13.127859 2.386974 17.901808 6.563929L345.213792 12.839487c12.531865 10.143891 14.321846 28.045699 4.176955 40.577564-10.143891 12.530865-28.045699 14.321846-40.577564 4.176955L189.467465-38.479962V134.572179c0 7.757917-2.983968 15.514833-8.950904 20.885776-78.769154 75.784186-122.329686 174.245128-122.329686 277.479019 0 223.177603 203.484814 405.180647 453.515128 405.180648 250.029314 0 453.515128-182.003045 453.515128-405.180648s-203.485814-405.179647-453.515128-405.179647h-3.579961c-16.112827 0-28.643692-12.530865-28.643693-28.642692 0-16.111827 12.530865-29.239686 28.642693-29.239686h4.176955c282.253968 0 511.398506 207.661769 511.398506 463.062025C1023.696503 688.338231 793.954971 896 511.702003 896zM231.238016 480.079468c-12.530865-12.531865-19.691788-29.836679-19.691788-47.739487 0-17.304814 7.160923-35.206622 19.691788-47.737487 12.531865-12.531865 29.836679-19.692788 47.739487-19.692789 17.304814 0 35.206622 7.160923 47.737487 19.692789 12.531865 12.530865 19.692788 29.836679 19.692789 47.738487 0 17.304814-7.160923 35.206622-19.692789 47.738487-12.530865 12.530865-29.836679 19.691788-47.738487 19.691788-17.901808 0-35.206622-7.159923-47.738487-19.691788z m328.202474-95.476974c12.530865 12.530865 19.691788 29.836679 19.691789 47.738487 0 17.304814-7.160923 35.206622-19.691789 47.738487-12.531865 12.530865-29.836679 19.691788-47.739487 19.691788-17.304814 0-35.206622-7.159923-47.737487-19.691788-12.531865-12.531865-19.692788-29.836679-19.692788-47.739487 0-17.304814 7.160923-35.206622 19.692788-47.737487 12.530865-12.531865 29.836679-19.692788 47.738487-19.692789 17.901808 0 35.206622 7.757917 47.738487 19.692789z m233.321494 0c12.530865 12.530865 19.691788 29.836679 19.691788 47.738487 0 17.304814-7.160923 35.206622-19.691788 47.738487-12.531865 12.530865-29.836679 19.691788-47.739487 19.691788-17.304814 0-35.206622-7.159923-47.737487-19.691788-12.531865-12.531865-19.692788-29.836679-19.692789-47.739487 0-17.304814 7.160923-35.206622 19.692789-47.737487 12.530865-12.531865 29.836679-19.692788 47.738487-19.692789 17.901808 0 35.206622 7.757917 47.738487 19.692789z"  horiz-adv-x="1024" />

    
    <glyph glyph-name="zhifubaozhifu" unicode="&#58978;" d="M248.886419 340.696075c-25.623712-2.549033-73.699664-13.841843-99.975455-37.049902-78.91629-68.468218-31.625796-193.696885 127.777701-193.696885 92.624754 0 185.249508 59.116823 257.985875 153.638532-103.191386 50.387866-190.910733 86.44483-285.788121 77.063795z m594.87322-86.56339c147.562348-49.291189 181.010999-51.869862 181.010999-51.869862V732.091235A163.893945 163.893945 0 0 1 860.876693 896h-696.982748A163.893945 163.893945 0 0 1 0 732.091235v-694.492995a163.893945 163.893945 0 0 1 163.893945-163.893945h696.804909a163.893945 163.893945 0 0 1 163.893944 163.893945v6.743082s-266.536992 110.779206-401.176334 175.305315c-90.26838-110.719926-206.753271-177.987727-327.787889-177.987728C91.172398 41.673729 21.726062 220.076415 118.559685 337.569063c21.118444 25.549612 57.056848 50.017367 112.79472 63.725831 87.171008 21.370383 225.9303-13.337965 355.960635-56.152831a710.913512 710.913512 0 0 1 57.797846 140.641427H244.321871v40.532592h206.397592v72.854926H200.988306v40.013894h250.220215v103.650805a17.176334 17.176334 0 0 0 17.783953 17.428274h101.012852v-121.049439h247.493343v-40.488132h-247.493343v-72.840107h201.951603a822.952414 822.952414 0 0 0-85.525992-215.437768c61.310177-22.096561 116.307051-42.977886 157.343522-56.760449z m0 0M2940.05789 769.185597h332.293158v-65.800625h118.678245v77.952993a1.793215 1.793215 0 0 0 0 0.489058 31.610976 31.610976 0 0 1-30.721779 31.981475h-192.125969V875.118675H3044.019914v-61.310177h-222.595808v-110.408706h118.663424zM2136.119486 869.47227l-121.642237-287.788815h93.365752v-342.430011h102.094709V693.500058h-37.035082l76.915596 175.972212z m1231.227509-488.599282a19.369689 19.369689 0 0 1-18.213731 13.901123h-98.952877l28.646984-96.759523H3162.579599V485.398171h228.123654v44.563621H3162.579599v88.208406h228.123654v44.608081h-569.368067v-44.622901h228.123654V529.946972h-228.064374v-44.622901h228.123654v-187.324303h-228.123654v-44.622901h583.29883l-0.489058 1.481996h0.489058z m-970.144263 252.709969a23.711937 23.711937 0 0 1-20.999884 13.337965h-88.386245l68.838717-216.756745h104.525182z m0 0M2620.895218 864.255644h-106.110918v-110.912585h-261.438925v-44.608082h261.438925v-398.508741a18.213732 18.213732 0 0 0-17.117054-16.687276H2443.811509v-46.193817h137.484774a41.881209 41.881209 0 0 1 39.598935 41.31805V708.794257h43.096446V753.343059h-43.096446z m-731.824476-583.165451a1257.45884 1257.45884 0 0 0-233.829339 111.446104c87.348848 64.644668 163.893945 152.423295 194.245224 269.827024h-203.596619v72.825286H1882.135001V780.789626h-236.244993V873.29582h-105.32546a21.237004 21.237004 0 0 1-20.881325-21.607502v-70.898692h-234.599977v-45.467639h234.614797v-72.840107H1321.673729v-45.467639h394.566632s-21.859442-85.348153-130.015514-177.06889c-97.130022 73.210606-129.363436 131.66053-129.363437 131.660531h-105.992358c42.800046-74.099803 103.621165-133.542665 169.110571-180.80352-60.2135-39.065416-138.210953-76.767396-239.090425-106.926016v-54.641195a1067.555864 1067.555864 0 0 1 306.121107 118.011347 1095.906449 1095.906449 0 0 1 302.060437-117.759408z m-490.422137-135.069121l-97.130022-264.121338h49.409749l18.213731 53.174018h97.130022l17.591293-53.174018h49.409749l-97.115202 264.121338z m-17.606113-177.617228l37.879819 109.26757L1455.320134-31.596156zM1797.661225 146.021072h-47.423874v-264.121338h159.892555v35.938404H1797.661225z m347.394697 0h47.527614v-264.121338h-47.527614z m403.428969 0h-102.598588v-264.121338h47.423874v101.739029h55.174714c51.232604 0 86.993169 33.448651 86.993169 81.287485s-35.760565 81.094825-86.993169 81.094824z m-2.667593-126.310524h-52.507121v90.40176h52.507121c26.33507 0 42.133148-23.074679 42.133148-45.34908s-14.819961-45.03786-42.073868-45.03786z m361.36992 126.310524l-97.130022-264.106518h49.409749l18.213731 53.174018h97.130022l17.606113-53.174018h49.409749L2944.726178 146.021072z m-17.783953-177.617228l37.879819 109.26757 36.427464-109.26757z m417.448651 177.617228l-51.869862-112.542781-52.62568 112.542781h-51.291884l79.953688-155.609587v-108.482111H3278.175292v108.482111l0.31122 0.607619L3358.20308 146.021072z m0 0"  horiz-adv-x="3411" />

    
    <glyph glyph-name="weixinzhifu" unicode="&#58931;" d="M434.246418 250.498567c-61.616046-38.143266-70.418338 20.538682-70.418338 20.538682l-79.22063 193.65043c-29.340974 90.95702 23.472779 41.077364 23.472779 41.077364s46.945559-38.143266 82.154728-61.616046c38.143266-23.472779 76.286533-5.868195 76.286533-5.868195l498.796562 252.332379C880.229226 813.845272 727.65616 896 557.47851 896 272.87106 896 44.011461 675.942693 44.011461 411.873926c0-152.573066 76.286533-290.475645 193.65043-378.498568L217.123209-101.593123s-8.802292-38.143266 26.406877-20.538682c23.472779 14.670487 88.022923 55.747851 123.232092 82.154728 61.616046-23.472779 126.166189-35.209169 187.782235-35.209169 284.60745 0 513.467049 217.123209 513.467048 484.126074 0 79.22063-20.538682 149.638968-55.747851 214.189112C853.82235 523.369628 481.191977 279.839542 434.246418 250.498567z m1704.710602-287.541547c-41.077364 0-61.616046 26.406877-61.616046 82.154728s20.538682 85.088825 61.616046 85.088825c26.406877-2.934097 44.011461-17.604585 49.879656-44.011461l29.340974 8.802292c-8.802292 41.077364-41.077364 61.616046-85.088825 61.616046-58.681948-2.934097-88.022923-38.143266-90.95702-108.561605 0-67.484241 29.340974-105.627507 90.95702-105.627507 49.879656 0 79.22063 20.538682 85.088825 70.418338l-29.340974 5.868195c0-38.143266-20.538682-55.747851-49.879656-55.747851z m-240.595988 190.716332c-61.616046-2.934097-90.95702-41.077364-96.825215-108.561604 2.934097-67.484241 35.209169-102.69341 99.759312-105.627507 46.945559 0 79.22063 20.538682 90.95702 61.616046l-35.209169 5.868194c-5.868195-29.340974-26.406877-44.011461-61.616046-44.011461-41.077364 2.934097-61.616046 26.406877-64.550143 76.286533h158.441261V45.111748c2.934097 73.352436-29.340974 105.627507-90.95702 108.561604z m-61.616046-90.95702c2.934097 41.077364 23.472779 61.616046 61.616046 64.550144 38.143266-2.934097 58.681948-23.472779 61.616045-64.550144h-123.232091z m240.595988 299.277937V749.295129c14.670487 38.143266 26.406877 79.22063 41.077364 123.232092L2050.934097 893.065903c-26.406877-108.561605-61.616046-193.65043-96.825214-258.200573 0-8.802292 2.934097-23.472779 5.868194-41.077364 5.868195-26.406877 8.802292-49.879656 8.802293-61.616046 14.670487 20.538682 23.472779 44.011461 38.143266 64.550143v-234.727794h67.484241zM1493.455587 664.206304h190.716333v-49.879656h-190.716333V664.206304z m70.418339-437.180516L1496.389685 1.100287c-2.934097-14.670487-5.868195-23.472779-5.868195-35.20917 0 14.670487 0 23.472779-2.934097 35.20917l-58.681949 225.925501h-35.209169l79.22063-284.60745h29.340975l67.48424 225.925502c2.934097 14.670487 2.934097 23.472779 2.934098 29.340974 2.934097 2.934097-8.802292 29.340974-8.802292 29.340974z m1041.604584 132.034384c82.154728 14.670487 158.441261 38.143266 228.859599 70.418338 64.550143-35.209169 140.836676-58.681948 222.991404-70.418338 14.670487 26.406877 26.406877 49.879656 44.011461 76.286533-70.418338 5.868195-137.902579 23.472779-190.716332 44.011461 49.879656 46.945559 90.95702 99.759312 120.297994 149.638969V696.481375H2875.415473V758.097421h211.255014V825.581662H2875.415473V893.065903h-82.154728v-67.484241h-214.189112v-64.550143h214.189112v-61.616046h-173.111748V631.931232h85.088825l-46.945558-29.340974c29.340974-44.011461 67.484241-85.088825 105.627507-117.363897-55.747851-26.406877-123.232092-44.011461-202.452722-55.747851 14.670487-17.604585 29.340974-41.077364 44.011461-70.418338z m120.297994 269.936963h208.320917c-26.406877-41.077364-61.616046-76.286533-99.759312-105.627507-44.011461 26.406877-79.22063 64.550143-108.561605 105.627507z m-1056.275071-630.830946v-5.868195c-2.934097-14.670487-2.934097-20.538682-2.934098-23.472779 0 8.802292-2.934097 20.538682-5.868195 35.209169l-61.616045 225.925501-17.604585-23.472779c0-8.802292 0-20.538682 2.934097-29.340974l67.484241-225.925502h29.340974l82.154728 284.60745H1731.117479c0-5.868195-61.616046-237.661891-61.616046-237.661891zM1857.283668 361.994269c2.934097 20.538682 14.670487 44.011461 29.340974 70.418338-26.406877 20.538682-46.945559 44.011461-64.550143 70.418339 26.406877 64.550143 41.077364 143.770774 44.011461 228.859598h17.604584V805.04298H1789.799427c5.868195 23.472779 14.670487 46.945559 20.538682 76.286533L1745.787966 896c-17.604585-70.418338-35.209169-132.034384-58.681949-181.91404V840.252149h-49.879656V749.295129H1613.753582V884.26361h-55.747851v-140.836676h-20.538682V840.252149h-46.945559c0 2.934097 2.934097 5.868195 8.802292 8.802292l-58.681948 38.143267c-29.340974-44.011461-67.484241-85.088825-105.627507-120.297995 14.670487-17.604585 23.472779-35.209169 29.340974-46.945558 2.934097-5.868195 5.868195-8.802292 8.802292-14.670487 41.077364 38.143266 76.286533 79.22063 108.561605 126.166189v-120.297995l-41.077364 29.340975c-29.340974-55.747851-67.484241-105.627507-108.561605-152.573066 14.670487-29.340974 20.538682-55.747851 23.47278-76.286533l17.604584 17.604584c5.868195 8.802292 14.670487 17.604585 17.604585 17.604585v-190.716333h64.550143V640.733524c14.670487 17.604585 23.472779 38.143266 38.143266 58.681949h184.848138c0-2.934097-2.934097-5.868195-5.868195-8.802292 14.670487-20.538682 20.538682-41.077364 26.406877-58.681949 0 0 2.934097 2.934097 2.934097 5.868195 2.934097 5.868195 8.802292 14.670487 8.802293 17.604584 2.934097-49.879656 14.670487-99.759312 29.340974-143.770773-14.670487-17.604585-23.472779-38.143266-38.143267-55.747851v20.538682c0 8.802292-2.934097 17.604585-2.934097 20.538682-17.604585-8.802292-26.406877-17.604585-35.209169-23.47278 0-2.934097-2.934097-2.934097-2.934098-2.934097v105.627507h-161.375358c0-14.670487 0-26.406877-2.934097-46.945559v-23.472779c0-41.077364-14.670487-76.286533-41.077364-96.825215 17.604585-17.604585 29.340974-29.340974 41.077364-44.011461 41.077364 35.209169 61.616046 85.088825 58.681948 158.441261h58.681949v-79.220631c0-8.802292-2.934097-20.538682-8.802293-29.340974l29.340975-41.077364c17.604585 14.670487 38.143266 29.340974 58.681948 44.011461 8.802292-17.604585 17.604585-38.143266 26.406877-58.681948 26.406877 23.472779 46.945559 46.945559 67.484241 79.22063 20.538682-26.406877 44.011461-55.747851 70.418338-76.286533z m-73.352436 225.925502c-8.802292 41.077364-17.604585 90.95702-20.538682 146.704871h44.011461c0-52.813754-11.73639-102.69341-23.472779-146.704871z m1029.868195-627.896848c-17.604585 0-23.472779 5.868195-23.472779 23.472779v140.836676h38.143266v23.47278h-38.143266V221.157593l-29.340975-17.604584v-55.747851h-26.406876v-23.47278h23.472779v-140.836676c0-29.340974 14.670487-46.945559 41.077364-44.011461 8.802292 0 20.538682 2.934097 29.340974 5.868195l-5.868195 17.604584c0-2.934097-5.868195-2.934097-8.802292-2.934097z m272.87106 267.002865H2963.438395v-284.60745h29.340975v117.363897h88.022922c64.550143 0 96.825215 29.340974 99.759313 85.088825-5.868195 49.879656-38.143266 79.22063-93.891118 82.154728z m-8.802292-140.836676h-82.154728v111.495702h82.154728c44.011461 0 67.484241-17.604585 67.484241-55.747851s-23.472779-55.747851-67.484241-55.747851z m334.487106-8.802293c2.934097 55.747851-23.472779 82.154728-82.154728 79.220631-49.879656 2.934097-82.154728-17.604585-90.95702-61.616046l29.340974-5.868195c2.934097 29.340974 23.472779 44.011461 61.616046 41.077364 38.143266 2.934097 55.747851-17.604585 49.879656-55.747851-8.802292-5.868195-35.209169-8.802292-70.418338-17.604584-46.945559-2.934097-76.286533-26.406877-76.286533-67.484241 2.934097-35.209169 26.406877-49.879656 67.484241-55.747851 38.143266 0 64.550143 8.802292 82.154728 35.209169 0-8.802292 2.934097-20.538682 8.802292-26.406877h29.340974c-5.868195 8.802292-14.670487 26.406877-8.802292 46.945559v88.022922z m-32.275072-52.813753c-2.934097-38.143266-26.406877-58.681948-67.48424-58.681949-29.340974 0-44.011461 8.802292-46.945559 29.340975 0 20.538682 17.604585 35.209169 55.747851 41.077364 38.143266 2.934097 58.681948 5.868195 61.616046 17.604584-2.934097 2.934097-2.934097-29.340974-2.934098-29.340974z m-140.836676 337.421203h76.286533V775.702006c14.670487 29.340974 26.406877 64.550143 38.143266 99.759312L3286.189112 896c-26.406877-79.22063-61.616046-152.573066-111.495702-228.859599 2.934097-14.670487 5.868195-35.209169 14.670487-61.616046 2.934097-17.604585 5.868195-29.340974 8.802292-38.143266 17.604585 23.472779 29.340974 44.011461 44.011461 67.484241-2.934097 2.934097-2.934097-272.87106-2.934097-272.871061z m278.739255 193.65043c-29.340974 41.077364-55.747851 76.286533-70.418338 96.825215-14.670487 17.604585-20.538682 26.406877-26.406877 38.143267l-58.681948-38.143267c35.209169-44.011461 64.550143-88.022923 90.95702-137.902579l64.550143 41.077364zM3635.346705 793.30659V890.131805h-76.286533v-96.825215h-222.991404v-70.418338h222.991404V485.226361c0-26.406877-14.670487-41.077364-38.143267-41.077364-26.406877 0-49.879656 0-79.22063 2.934098h-5.868195c8.802292-26.406877 14.670487-49.879656 17.604585-70.418339v-8.802292c14.670487 0 38.143266 0 64.550143 2.934098h44.011461c46.945559 0 70.418338 26.406877 70.418338 85.088825V722.888252h76.286533V793.30659h-73.352435z m-73.352436-801.008596c-2.934097-2.934097-2.934097-8.802292-2.934097-14.670487 0 0 0 2.934097-2.934098 8.802292v5.868195c-2.934097 2.934097-20.538682 55.747851-55.747851 158.441261h-35.209169l79.220631-199.518625c-2.934097-14.670487-5.868195-20.538682-8.802292-26.406876-5.868195-17.604585-20.538682-26.406877-35.20917-26.406877-5.868195 0-14.670487 0-20.538681 2.934097l-2.934098-17.604584c5.868195-2.934097 17.604585-5.868195 29.340974-5.868195 26.406877-2.934097 49.879656 14.670487 64.550144 58.681948 5.868195 20.538682 38.143266 90.95702 88.022922 217.123209h-35.209169c2.934097 0-61.616046-161.375358-61.616046-161.375358z m-1191.243553 161.375358c-26.406877 0-49.879656-14.670487-67.48424-38.143266v108.561605h-29.340975v-284.60745h29.340975v126.166189c2.934097 35.209169 23.472779 55.747851 58.681948 58.681948 29.340974 0 46.945559-20.538682 46.945559-58.681948v-126.166189h29.340974v132.034384c2.934097 58.681948-17.604585 88.022923-67.484241 82.154727z m-237.661891 208.320917h70.418338v26.406877h178.979943v-26.406877h76.286533v205.38682H2130.154728v-205.38682h2.934097z m76.286533 137.902579h178.979943v-49.879656h-178.979943v49.879656z m472.389685-422.510029c2.934097 55.747851-23.472779 82.154728-82.154728 79.220631-49.879656 2.934097-82.154728-17.604585-90.95702-61.616046l29.340974-5.868195c2.934097 29.340974 23.472779 44.011461 61.616046 41.077364 38.143266 2.934097 55.747851-17.604585 49.879656-55.747851-8.802292-5.868195-35.209169-8.802292-70.418338-17.604584-46.945559-2.934097-76.286533-26.406877-76.286533-67.484241 2.934097-35.209169 26.406877-49.879656 67.484241-55.747851 38.143266 0 64.550143 8.802292 82.154728 35.209169 0-8.802292 2.934097-20.538682 8.802292-26.406877h29.340974c-5.868195 8.802292-14.670487 26.406877-8.802292 46.945559v88.022922z m-32.275072-52.813753c-2.934097-38.143266-26.406877-58.681948-67.48424-58.681949-29.340974 0-44.011461 8.802292-46.945559 29.340975 0 20.538682 17.604585 35.209169 55.747851 41.077364 38.143266 2.934097 58.681948 5.868195 61.616046 17.604584-2.934097 2.934097-2.934097-29.340974-2.934098-29.340974zM2133.088825 652.469914h328.618911v-58.681948H2133.088825v58.681948zM2317.936963 893.065903l-82.154728-14.670488c5.868195-17.604585 14.670487-26.406877 17.604584-38.143266 0-2.934097 2.934097-8.802292 2.934098-8.802292h-146.704871v-61.616046h381.432665V831.449857h-146.704871c-8.802292 26.406877-17.604585 46.945559-26.406877 61.616046z m-184.848138-155.507164h328.618911v-58.681948H2133.088825v58.681948z"  horiz-adv-x="3755" />

    
    <glyph glyph-name="WeChat_pay" unicode="&#58893;" d="M429.725538 248.241231a39.581538 39.581538 0 0 0-52.105846 15.635692l-2.599384 5.592615-107.480616 231.778462a19.377231 19.377231 0 0 0-1.890461 8.152615c0 10.633846 8.822154 19.337846 19.652923 19.337847 4.411077 0 8.507077-1.417846 11.815384-3.820308l126.936616-88.733539a59.195077 59.195077 0 0 1 52.420923-5.947077L1073.348923 691.2C966.301538 815.064615 790.173538 896 590.769231 896 264.467692 896 0 679.424 0 412.356923c0-145.723077 79.556923-276.873846 204.130462-365.489231a38.596923 38.596923 0 0 0 16.502153-31.507692c0-4.371692-0.945231-8.270769-2.048-12.366769l-26.663384-97.516308c-1.260308-4.568615-3.150769-9.334154-3.150769-14.099692 0-10.752 8.822154-19.377231 19.692307-19.377231a22.724923 22.724923 0 0 1 11.342769 3.544615l129.339077 73.373539c9.767385 5.513846 20.007385 8.979692 31.389539 8.979692 6.025846 0 11.815385-0.945231 17.329231-2.520615 60.337231-17.053538 125.479385-26.584615 192.866461-26.584616C917.031385-71.207385 1181.538462 145.329231 1181.538462 412.356923c0 80.974769-24.418462 157.144615-67.347693 224.098462l-680.172307-385.772308-4.292924-2.441846z"  horiz-adv-x="1181" />

    
    <glyph glyph-name="Alipaypayment" unicode="&#58946;" d="M1024 194.88V699.2A197.12 197.12 0 0 1 826.88 896H196.8A197.12 197.12 0 0 1 0 699.2v-630.4A196.8 196.8 0 0 1 196.8-128h630.4a196.8 196.8 0 0 1 192 162.24c-52.16 22.4-278.4 120.32-396.16 176.64-89.92-108.8-183.68-174.08-325.44-174.08s-236.16 87.36-224 193.92c7.68 70.08 55.68 184.64 264.32 165.12a943.68 943.68 0 0 0 250.24-60.48 701.76 701.76 0 0 1 57.28 139.2H248v39.36h196.8V584.64H204.8V628.16h240v102.4a18.88 18.88 0 0 0 19.84 15.68h98.56v-118.08h256v-43.2h-256v-71.04h208.96a806.08 806.08 0 0 0-84.8-212.48c60.48-22.08 336.64-106.56 336.64-106.56zM283.52 104.32c-149.76 0-173.44 96-165.44 134.08s51.2 90.56 134.4 90.56a621.76 621.76 0 0 0 284.16-74.56c-72.32-94.08-160-150.08-253.12-150.08z"  horiz-adv-x="1024" />

    
    <glyph glyph-name="pay_wechatpay" unicode="&#58902;" d="M519.726545-16.570182a536.296727 536.296727 0 0 0-146.199272 20.107637 185.949091 185.949091 0 0 1-39.610182-11.822546l-89.786182-56.087273c-26.530909-17.687273-35.188364-11.031273-25.879273 20.014546l19.968 70.144c1.349818 13.824 0.093091 27.787636-3.723636 41.192727-108.218182 71.866182-177.989818 183.668364-177.989818 308.829091 0 216.110545 208.058182 392.424727 463.220363 392.424727 155.601455 0 293.748364-65.629091 377.809455-165.794909l-431.802182-204.194909c-29.742545-17.826909-59.485091-21.550545-89.274182 5.585455L307.665455 465.594182c-31.418182 9.309091-42.589091-0.651636-33.466182-29.928727l74.379636-181.248c16.709818-27.229091 41.425455-36.305455 83.781818-5.585455l500.829091 303.709091a342.109091 342.109091 0 0 0 49.803637-176.686546c0-216.157091-208.104727-392.424727-463.220364-392.424727z"  horiz-adv-x="1024" />

    
    <glyph glyph-name="gou" unicode="&#59056;" d="M512-128c-282.204724 0-512 229.795276-512 512 0 282.204724 229.795276 512 512 512s512-229.795276 512-512c-2.015748-284.220472-229.795276-512-512-512z m0 941.354331c-237.858268 0-431.370079-193.511811-431.370079-431.370079s193.511811-431.370079 431.370079-431.370079c237.858268 0 431.370079 193.511811 431.370079 431.370079s-193.511811 431.370079-431.370079 431.370079zM447.496063 218.708661c-10.07874 0-20.15748 4.031496-28.220472 12.094489l-133.039371 137.070866c-16.125984 16.125984-16.125984 42.330709 0 56.440945 16.125984 16.125984 42.330709 16.125984 56.440945 0l106.834646-108.850394 233.826772 221.732283c16.125984 16.125984 42.330709 14.110236 56.440945-2.015748 16.125984-16.125984 14.110236-42.330709-2.015748-56.440945l-264.062993-247.937007c-6.047244-8.062992-16.125984-12.094488-26.204724-12.094489z"  horiz-adv-x="1026" />

    
    <glyph glyph-name="ali_pay" unicode="&#58882;" d="M249.784038 339.76141c-25.663182-2.527919-73.821647-13.887557-100.156807-37.086818-78.941484-68.605813-31.710989-194.105813 128.027919-194.105813 92.86104 0 185.658082 59.230112 258.551758 153.979092-103.644696 50.462392-191.513895 86.557241-286.42287 77.213539zM845.669044 253.044174c147.867287-49.374426 181.402218-52.030342 181.402218-52.030341V731.940909A164.154768 164.154768 0 0 1 862.628504 895.967681H164.666751A164.218766 164.218766 0 0 1 0.159995 731.940909v-695.913817c0-90.589112 73.597654-164.026772 164.506756-164.026772h697.961753a164.186767 164.186767 0 0 1 164.442758 164.026772v6.719785s-267.095486 111.036461-401.971187 175.7064c-90.429118-110.940464-207.161397-178.330316-328.277536-178.330316-204.889469 0-274.455252 178.778301-177.466343 296.47055 21.183325 25.631183 57.150178 50.142402 112.988398 63.869964 87.325217 21.407318 226.392784-13.375574 356.69263-56.254207a713.673252 713.673252 0 0 1 57.854156 140.955507H245.304181v40.574707h207.0654V598.441165H201.593574V639.015871h250.776007V742.724566s0 17.471443 17.759434 17.471443h101.180775v-121.212137h247.960096V598.409166h-247.960096v-72.701683h202.393548c-19.359383-79.101479-48.798445-151.931157-85.693268-215.865119 61.406043-22.143294 116.572284-43.134625 157.658974-56.862188zM2488.720672 735.460797h293.97463v-58.174146h104.988653V746.212454l-0.031999 0.415987a27.999108 27.999108 0 0 1-27.199133 28.287099h-169.914584V829.18581h-109.852498v-54.27027h-196.921723v-97.628889h104.988653V735.460797zM1852.740944 824.16197L1745.096375 569.610084h82.557369v-302.934344h90.301121V668.486932h-32.702957l68.029831 155.675038zM2899.715572 280.595296l-32.990949 111.38845a17.183452 17.183452 0 0 1-16.255482 12.287608h-87.389214l25.311193-85.565273h-102.748725v165.722718h201.817567v39.486741h-201.817567V601.929054h201.817567V641.383796H2383.764018V601.929054h201.785568v-78.013514h-201.785568v-39.486741h201.785568v-165.722718h-201.785568v-39.486741h515.951554l-0.415987 1.343957h0.415987zM2083.645584 615.496621a20.895334 20.895334 0 0 1-18.559409 11.871622h-78.173508l60.86206-191.737889h92.477052l-56.638194 179.866267zM2281.527276 819.554117h-93.853008v-98.044875h-231.288628v-39.454742h231.288628v-352.500765a16.223483 16.223483 0 0 0-15.167517-14.783528h-47.67848v-40.862698h121.596124a37.054819 37.054819 0 0 1 35.070882 36.574834V682.0545h38.110786V721.509242h-38.110786V819.554117zM1696.00994 640.903811h-180.250255V705.509752h209.017338V745.73247h-209.017338V827.585861l-93.18103-0.031999a18.783401 18.783401 0 0 1-18.463411-19.103391v-62.718001h-207.545385v-40.222718h207.545385v-64.605941h-175.162417v-40.222718H1577.869705s-19.327384-75.485594-115.036333-156.603008c-85.757266 64.92593-114.396354 116.604283-114.396353 116.604283h-93.597017c37.854793-65.629908 91.677078-118.204232 149.627231-159.898903-53.214304-34.590897-122.236104-67.933835-211.513258-94.588985v-48.190464s137.691611 25.983172 270.775369 104.380673c133.275752-77.78952 267.159484-104.380673 267.159484-104.380673v45.598547c-85.66127 31.199006-153.563105 65.469913-206.873406 98.588857 77.245538 57.182177 144.891382 134.811703 172.026517 238.680392zM1400.14737-2.371684l15.583504-47.0705h43.678607l-86.045257 233.624553h-33.406935l-85.725268-233.624553h43.710607l16.255482 47.0705h85.917261z m-42.238653 126.363972l32.318969-96.892912H1324.437784l33.470933 96.892912zM1597.293086 184.214368v-233.624553h141.435492v31.806986H1639.307747v201.817567zM1892.867665 184.214368h42.04666v-233.624553h-42.04666v233.624553zM2196.09 184.214368h-90.813106v-233.624553h42.014661v89.789138h48.798445c45.310556 0 76.957547 29.567058 76.957547 71.901708s-31.646991 71.933707-76.957547 71.933707z m-2.335926-111.740438h-46.43052v79.933452h46.43052c23.295257 0 37.246813-20.38335 37.246813-40.126721 0-19.295385-13.055584-39.806731-37.246813-39.806731zM2519.823681-2.371684l15.583503-47.0705h43.678608l-86.077257 233.624553h-33.374936l-85.725267-233.624553h43.742605l16.223483 47.0705h85.949261z m-42.270653 126.363972l32.31897-96.892912H2444.082095l33.470933 96.892912zM2813.19033 184.214368l-45.854539-99.548827-46.526517 99.548827h-45.406552l70.749744-137.659612v-95.964941h41.72667v95.964941l0.255992 0.511984 70.493753 137.147628z"  horiz-adv-x="2911" />

    
    <glyph glyph-name="xinzeng" unicode="&#59053;" d="M512 896c282.760533 0 512-229.239467 512-512 0-282.760533-229.239467-512-512-512-282.760533 0-512 229.239467-512 512C0 666.760533 229.239467 896 512 896z m0-68.266667C266.922667 827.733333 68.266667 629.077333 68.266667 384s198.656-443.733333 443.733333-443.733333 443.733333 198.656 443.733333 443.733333S757.077333 827.733333 512 827.733333z m0-204.8a34.133333 34.133333 0 0 0 34.133333-34.133333v-170.666667h170.666667a34.133333 34.133333 0 0 0 0-68.266666h-170.666667v-170.666667a34.133333 34.133333 0 0 0-68.266666 0v170.666667H307.2a34.133333 34.133333 0 0 0 0 68.266666h170.666667V588.8a34.133333 34.133333 0 0 0 34.133333 34.133333z"  horiz-adv-x="1024" />

    
    <glyph glyph-name="dizhi" unicode="&#58910;" d="M509.8-127.9h6.498-6.497z m3.2 20.992c-260.299 0-471.316 104.16-471.316 232.509 0 75.97 73.97 143.144 188.026 185.527 15.394 5.798 31.888-5.397 31.888-21.691v-13.195c0-9.796-6.098-18.393-15.394-21.791-86.666-31.188-141.845-77.27-141.845-128.95 0-94.163 182.829-170.433 408.44-170.433S921.24 31.438 921.24 125.5c0 51.48-55.078 97.662-141.844 128.95-8.997 3.398-15.095 12.195-15.095 21.791v13.195c0 16.294 16.494 27.49 31.888 21.691 114.055-42.383 188.027-109.657 188.027-185.527 0.1-128.45-210.918-232.51-471.216-232.51z m16.493 150.84l-0.2-0.2c-9.196-8.696-23.59-8.696-32.587 0-12.195 11.297-297.884 280.291-297.884 542.489C198.822 757.854 339.767 896 513 896s314.177-139.645 314.177-311.378c0-255.2-285.489-529.094-297.684-540.69zM513 834.525c-138.546 0-251.402-116.654-251.402-248.403 0-171.633 162.736-372.355 234.008-447.425 9.397-9.896 25.09-9.796 34.387 0.1 71.172 76.17 234.308 280.19 234.308 447.225C764.401 717.87 651.545 834.524 513 834.524zM355.46 555.234c0 85.366 70.673 154.839 157.539 154.839s157.638-69.473 157.638-154.84S599.866 400.393 513 400.393 355.46 469.867 355.46 555.234z m251.702 0c0 51.08-42.384 92.563-94.363 92.563s-94.164-41.584-94.164-92.564S460.82 462.67 512.8 462.67c52.18 0 94.363 41.584 94.363 92.564z"  horiz-adv-x="1024" />

    
    <glyph glyph-name="dizhi1" unicode="&#59115;" d="M845.909333 226.56c-81.493333-104.106667-169.514667-207.530667-245.674666-296.234667-31.402667-36.48-64.469333-54.954667-98.218667-54.954666-35.072 0-69.546667 19.925333-102.272 59.221333l-52.138667 62.72a9806.933333 9806.933333 0 0 0-175.786666 214.485333C107.52 293.418667 77.397333 375.808 79.786667 463.957333a402.56 402.56 0 0 0 74.965333 241.194667A397.653333 397.653333 0 0 0 357.333333 854.229333a480.682667 480.682667 0 0 0 149.077334 24.32c66.602667 0 130.005333-14.762667 188.245333-43.733333a437.034667 437.034667 0 0 0 152.234667-127.445333c51.370667-67.285333 79.701333-152.618667 79.786666-240.213334 0-88.277333-28.586667-173.781333-80.810666-240.64h0.042666zM786.986667 683.946667c-67.584 84.309333-173.994667 134.570667-284.501334 134.570666a369.493333 369.493333 0 0 1-116.010666-18.602666c-148.48-49.152-244.48-181.034667-244.48-336.042667v-0.512c-8.192-78.506667 30.805333-148.352 65.024-193.152 65.706667-86.442667 136.874667-171.221333 205.653333-253.141333l45.525333-54.272c13.824-16.725333 28.586667-25.088 43.562667-25.173334 16.341333 0 33.706667 10.24 49.92 29.610667 21.290667 25.344 43.136 51.114667 64.213333 75.946667 60.501333 71.338667 123.050667 144.896 178.773334 221.098666 96.981333 132.138667 93.994667 293.077333-7.68 419.669334z m-284.16-396.885334h-2.56c-50.645333 0.853333-97.109333 19.712-130.773334 53.248A180.352 180.352 0 0 0 317.226667 469.333333c0 101.205333 76.288 177.92 177.28 178.346667h1.066666c110.592 0 194.474667-75.733333 195.029334-176.256a179.2 179.2 0 0 0-55.296-130.816 188.586667 188.586667 0 0 0-132.437334-53.546667z m90.154666 265.301334c-22.528 22.485333-54.357333 35.029333-89.6 35.498666h-1.621333c-67.413333 0-119.722667-49.706667-121.642667-115.626666-1.194667-32.853333 11.349333-64.682667 34.56-87.893334 22.997333-22.997333 54.314667-35.669333 88.32-35.84h0.682667c67.669333 0 121.728 51.328 122.965333 116.992a117.674667 117.674667 0 0 1-33.621333 86.869334h-0.042667z"  horiz-adv-x="1024" />

    
    <glyph glyph-name="dingdan23" unicode="&#59106;" d="M621.714286 859.428571a73.142857 73.142857 0 0 0 72.630857-64.585142L694.857143 786.285714h73.142857a146.285714 146.285714 0 0 0 145.92-135.314285l0.365714-10.971429v-585.142857a146.285714 146.285714 0 0 0-135.314285-145.92l-10.971429-0.365714h-512a146.285714 146.285714 0 0 0-145.92 135.314285L109.714286 54.857143v585.142857a146.285714 146.285714 0 0 0 135.314285 145.92L256 786.285714h73.142857a73.142857 73.142857 0 0 0 64.585143 72.630857L402.285714 859.428571h219.428572z m-292.571429-146.285714h-73.142857a73.142857 73.142857 0 0 1-73.142857-73.142857v-585.142857a73.142857 73.142857 0 0 1 73.142857-73.142857h512a73.142857 73.142857 0 0 1 73.142857 73.142857v585.142857a73.142857 73.142857 0 0 1-73.142857 73.142857h-73.142857a73.142857 73.142857 0 0 0-73.142857-73.142857h-219.428572a73.142857 73.142857 0 0 0-73.142857 73.142857z m270.628572 73.142857H424.228571a21.942857 21.942857 0 0 1-21.942857-21.942857v-29.257143a21.942857 21.942857 0 0 1 21.942857-21.942857h175.542858a21.942857 21.942857 0 0 1 21.942857 21.942857v29.257143a21.942857 21.942857 0 0 1-21.942857 21.942857zM292.571429 237.714286a36.571429 36.571429 0 0 0 36.571428 36.571428h219.428572a36.571429 36.571429 0 0 0 0-73.142857h-219.428572A36.571429 36.571429 0 0 0 292.571429 237.714286zM329.142857 457.142857a36.571429 36.571429 0 0 1 0-73.142857h365.714286a36.571429 36.571429 0 0 1 0 73.142857h-365.714286z"  horiz-adv-x="1024" />

    
    <glyph glyph-name="kucunweb" unicode="&#58952;" d="M987.721143 651.922286L900.827429 819.2C879.323429 860.452571 826.075429 892.781714 779.629714 892.781714H245.028571c-46.372571 0-99.766857-32.182857-121.417142-73.069714L36.644571 655.872C17.92 620.324571 3.291429 561.152 3.291429 521.142857v-550.619428c0-52.589714 42.715429-95.378286 95.378285-95.378286H925.257143c52.662857 0 95.378286 42.788571 95.378286 95.378286V517.266286c0 40.009143-14.482286 99.181714-32.914286 134.656zM92.964571 626.102857l86.820572 163.84c10.825143 20.48 41.984 39.204571 65.243428 39.204572h534.674286c23.113143 0 53.979429-18.724571 64.731429-39.277715l86.893714-167.277714c4.096-7.899429 8.045714-18.139429 11.556571-29.037714H80.237714c3.803429 12.214857 8.045714 23.771429 12.726857 32.548571z m864.182858-655.506286c0-17.481143-14.262857-31.744-31.817143-31.744H98.742857a31.817143 31.817143 0 0 0-31.817143 31.744V521.216c0 2.486857 0.512 5.851429 0.731429 8.777143h888.466286c0.365714-4.242286 1.097143-8.996571 1.097142-12.726857v-546.669715z m-177.810286 384.219429l-160.182857-171.154286-64.658286 64.585143a31.817143 31.817143 0 1 1-44.982857-44.982857L596.845714 116.297143a31.524571 31.524571 0 0 1 22.381715-9.289143c4.388571 0 8.777143 1.097143 12.946285 2.925714a31.158857 31.158857 0 0 1 12.580572 7.972572l181.101714 193.462857a31.890286 31.890286 0 0 1-46.445714 43.446857z m-362.130286-46.445714h-190.902857a31.817143 31.817143 0 0 1 0-63.634286h190.902857a31.744 31.744 0 1 1 0 63.634286zM320.658286 172.617143H225.28a31.817143 31.817143 0 0 1 0-63.561143h95.378286a31.744 31.744 0 1 1 0 63.634286z"  horiz-adv-x="1024" />

    
    <glyph glyph-name="search" unicode="&#58898;" d="M948.8-2.9L800.7 145.2c131.9 162.7 122.1 402-29.2 553.3-161.8 161.8-424 161.8-585.8 0-161.7-161.8-161.7-424 0-585.8 156.6-156.6 407.4-161.6 570-15l146.8-146.8c12.8-12.8 33.5-12.8 46.2 0 12.8 12.7 12.8 33.4 0.1 46.2zM232 159C95.7 295.2 95.7 516 232 652.2c136.2 136.2 357.1 136.2 493.3 0s136.2-357.1 0-493.3C589 22.7 368.2 22.7 232 159z"  horiz-adv-x="1024" />

    
    <glyph glyph-name="Searchbar_icon" unicode="&#58884;" d="M1015.125333-74.001067l-154.3168 154.3168c78.062933 86.698667 126.190933 201.079467 126.190934 326.656C986.999467 676.625067 767.658667 896 498.005333 896 228.352 896 8.942933 676.590933 8.942933 406.971733c0-269.653333 219.409067-489.028267 489.028267-489.028266 116.565333 0 223.675733 41.1648 307.712 109.431466L961.194667-128l53.930666 53.998933zM85.333333 407.04c0 227.566933 185.1392 412.672 412.672 412.672 227.498667 0 412.672-185.070933 412.672-412.672s-185.105067-412.672-412.672-412.672c-227.601067 0-412.672 185.002667-412.672 412.672z"  horiz-adv-x="1024" />

    
    <glyph glyph-name="pingjia" unicode="&#59306;" d="M261.15584 433.93536c-21.26848 0-38.48704 16.9984-37.7344 37.4528 0 20.6592 17.01376 37.45792 37.7344 37.45792h185.82528c20.72064 0 37.7344-16.79872 37.7344-37.45792 0-20.65408-17.01376-37.4528-37.7344-37.4528H261.15584z m0-218.01984c-21.26848 0-38.48704 16.9984-37.7344 37.4528 0 20.65408 17.01376 37.4528 37.7344 37.4528h404.38272c21.0688 0 38.20032-16.68608 38.20032-37.4528 0-20.6592-17.47456-37.4528-38.1952-37.4528H261.15072z m376.95488 295.7312l281.856 274.1248c14.31552 14.8736 39.54688 14.8736 54.3488 0.26112 7.28576-7.1936 11.15648-16.73728 11.15648-26.9824 0-10.24-3.87072-19.7888-11.22816-27.05408L692.1216 457.61024c-7.24992-7.15264-16.80896-10.92608-27.04896-10.92608-10.24 0-19.79904 3.77344-27.04384 10.92608-14.83264 14.6432-14.83264 38.59456 0.0768 54.03648z m67.47136 269.63968c8.9088-6.77888 14.29504-17.08032 14.29504-28.60544a35.90144 35.90144 0 0 0-22.22592-33.2544l-5.65248-2.42176-7.0912-1.32096H189.68576c-38.97856 0-71.08096-34.4064-71.08096-77.25056v-515.24096c0-42.83904 32.1024-77.24544 71.08096-77.24544h657.06496c38.97856 0 71.08096 34.4064 71.08096 77.24544l0.17408 406.8352a37.888 37.888 0 0 0 37.56544 32.07168c20.72064 0 37.7344-16.79872 37.7344-37.4528v-401.90976c0-83.42528-65.8432-151.69536-147.01568-151.69536H189.68576c-81.24928 0-147.0208 68.352-147.0208 152.15104V638.43328c0 83.89632 65.87904 152.20224 147.0208 151.70048h503.38304l12.51328-8.84736z"  horiz-adv-x="1024" />

    
    <glyph glyph-name="gouwuche" unicode="&#58930;" d="M275.939 108.651h789.203a37.77 37.77 0 0 1 35.24 35.157s54.126 301.146 78.828 508.459c7.082 57.413-19.98 85.488-72.926 85.488h-862.13L229.992 860.844A36.674 36.674 0 0 1 197.027 896H38.276a39.877 39.877 0 0 1 0-79.67h123.51l80.008-672.69a35.915 35.915 0 0 1 33.723-34.989z m826.804 550.613c-21.33-166.339-56.486-388.995-70.565-472.122H309.999l-56.486 472.122h849.23zM314.72 28.981a78.49 78.49 0 1 1 78.828-78.49 78.49 78.49 0 0 1-78.828 78.49z m711.556 0a78.49 78.49 0 1 1 78.828-78.49 78.49 78.49 0 0 1-78.828 78.49z"  horiz-adv-x="1180" />

    
    <glyph glyph-name="gouwuche1" unicode="&#59307;" d="M329.64849663 171.29945182999995h609.64053154a29.17642593 29.17642593 0 0 1 27.22206116 27.15794564s41.8110466 232.6281166 60.8927536 392.77247428c5.47067642 44.35017586-15.43407441 66.03744507-56.3335991 66.03744508h-665.9749031L294.15553284 752.35063934A28.32979202 28.32979202 0 0 1 268.69085502 779.5078125H146.05948639a30.80403327 30.80403327 0 0 1-1e-8-61.54317856h95.40853501l61.80427552-519.63701248a27.74348259 27.74348259 0 0 1 26.05021476-27.02816965z m638.68640899 425.33543587c-16.47691727-128.49291803-43.63409043-300.48937798-54.50978279-364.70300675H355.95903587l-43.63409042 364.70300675h656.00996017zM359.60589599 109.75627326999995a60.63165665 60.63165665 0 1 1 60.89275362-60.63165664 60.63165665 60.63165665 0 0 1-60.89275362 60.63165664z m549.66007234 0a60.63165665 60.63165665 0 1 1 60.89275359-60.63165664 60.63165665 60.63165665 0 0 1-60.89275359 60.63165664z"  horiz-adv-x="1180" />

    
    <glyph glyph-name="zhongbiao" unicode="&#58921;" d="M512 864C246.8796875 864 32 649.1203125 32 384s214.8796875-480 480-480 480 214.8796875 480 480S777.1203125 864 512 864z m291.6403125-771.6403125a410.3596875 410.3596875 0 0 0-131.16-88.3996875c-50.8003125-21.6-104.8003125-32.4403125-160.4803125-32.4403125-55.68 0-109.68 10.8403125-160.5196875 32.3203125a412.92 412.92 0 0 0-131.120625 88.3996875 410.3596875 410.3596875 0 0 0-88.3996875 131.2003125A409.32 409.32 0 0 0 99.44 384c0 55.68 10.8796875 109.68 32.4 160.5196875a412.92 412.92 0 0 0 88.3996875 131.120625 410.3596875 410.3596875 0 0 0 131.120625 88.3996875c50.919375 21.6 104.919375 32.4796875 160.599375 32.4796875 55.68 0 109.68-10.8796875 160.4803125-32.4 49.1596875-20.799375 93.1996875-50.4796875 131.2003125-88.3996875 37.839375-37.8403125 67.68-82.0003125 88.3996875-131.1196875 21.5596875-50.9203125 32.4-104.9203125 32.4-160.6003125a410.1196875 410.1196875 0 0 0-120.7996875-291.6403125z m-84.440625 299.16H545.7603125V616.44a33.72 33.72 0 1 1-67.520625 0v-224.9596875c0-37.32 30.200625-67.520625 67.520625-67.520625h173.439375a33.72 33.72 0 1 1 0 67.520625z"  horiz-adv-x="1024" />

    
    <glyph glyph-name="jiage" unicode="&#58953;" d="M892.714667 725.461333L847.36 647.168C904.362667 574.634667 938.666667 483.413333 938.666667 384c0-235.648-191.018667-426.666667-426.666667-426.666667S85.333333 148.35199999999998 85.333333 384 276.352 810.666667 512 810.666667c64.384 0 125.226667-14.677333 179.968-40.192l42.837333 73.984C667.349333 877.141333 591.957333 896 512 896 229.248 896 0 666.752 0 384s229.248-512 512-512 512 229.248 512 512C1024 515.413333 974.08 634.837333 892.714667 725.461333zM689.792 298.66666699999996L554.666667 298.66666699999996l0 42.666667 135.125333 0C709.418667 341.33333300000004 725.333333 360.448 725.333333 384s-15.914667 42.666667-35.541333 42.666667l-56.832 0 85.418667 146.688c13.141333 20.309333 6.741333 47.018667-14.336 59.690667-21.077333 12.672-48.853333 6.485333-61.994667-13.824L529.92 426.666667l-35.84 0L381.952 619.264C368.810667 639.530667 341.034667 645.717333 320 633.045333 298.88 620.4159999999999 292.48 593.664 305.621333 573.3546670000001L391.04 426.666667 334.208 426.666667C314.581333 426.666667 298.666667 407.552 298.666667 384s15.914667-42.666667 35.541333-42.666667L469.333333 341.33333300000004l0-42.666667L334.208 298.66666699999996C314.581333 298.66666699999996 298.666667 279.552 298.666667 256s15.914667-42.666667 35.541333-42.666667L469.333333 213.33333300000004l0-93.866667c0-18.858667 19.114667-34.133333 42.666667-34.133333s42.666667 15.274667 42.666667 34.133333L554.666667 213.33333300000004l135.125333 0C709.418667 213.33333300000004 725.333333 232.44799999999998 725.333333 256S709.418667 298.66666699999996 689.792 298.66666699999996z"  horiz-adv-x="1024" />

    
    <glyph glyph-name="xinkaobei" unicode="&#58883;" d="M867.139 124.325c57.619 70.187 92.556 160.909 92.579 259.791-3.815 233.201-193.848 420.874-427.714 420.874-2.259 0-4.514-0.018-6.765-0.052-0.126 0.006-0.678 0.007-1.23 0.007-96.567 0-185.887-31.026-258.536-83.655l-63.934 65.733c88.363 67.973 200.575 108.935 322.354 108.935 0.593 0 1.185-0.001 1.778-0.003 1.892 0.028 4.235 0.043 6.581 0.043 284.153 0 514.96-228.402 518.846-511.632-0.022-124.447-45.029-238.011-119.597-325.645zM377.937 261.416c-17.905-56.416-48.779-104.423-89.237-142.324l-4.65 70.081c29.205 32.35 49.118 73.607 55.225 119.233zM535.733 423.819v-51.764c-11.377 1.138-87.772 1.707-87.772 1.707v-34.415s73.636 0.853 85.326 2.56v-50.911c-11.889 1.422-85.326 1.991-85.326 1.991v-116.897c0.622-2.623 0.979-5.634 0.979-8.729 0-10.931-4.452-20.822-11.643-27.959-17.978-14.223-69.827-9.104-81.688-8.251-1.723 21.726-6.82 41.819-14.781 60.394 17.474-13.872 32.335-14.932 47.437-14.96 5.399 0.073 8.442 2.633 8.442 11.734v104.667s-94.228-1.707-99.974-2.56v51.48c6.371-0.853 99.974-2.56 99.974-2.56v34.415s-95.167-1.138-100.486-1.707v51.764c13.637-1.799 29.405-2.826 45.413-2.826 4.914 0 9.806 0.097 14.673 0.289-7.656 31.275-20.919 58.731-39.157 82.117l60.784-14.163s-54.893 0-74.091-1.991v51.764c12.571-1.707 88.17-2.275 88.17-2.275-18.712 44.067-43.988 81.779-75.053 113.849l111.089-67.773c18.706-33.047 31.646-71.805 36.343-113.066s49.864 67.274 64.626 69.265v-51.764c-22.754 2.56-65.417 1.991-65.417 1.991l43.118-11.661c-8.021-16.781-29.068-58.022-27.902-56.315 3.436-0.112 7.476-0.177 11.531-0.177 15.974 0 31.717 0.994 47.168 2.924zM381.976 489.236c14.903-26.453 24.73-57.64 27.324-90.858l-51.158 22.882h70.024c20.511 34.416 34.293 75.123 38.463 118.637l-84.652-50.66zM767.109 433.49v-53.755c-13.616 1.312-29.438 2.060-45.434 2.060-2.936 0-5.866-0.025-8.79-0.075l3.483-252.559h-59.358c-9.955-58.875 3.043 252.565 3.043 252.565h-54.296c-0.512-112.63-20.279-197.387-58.846-253.418-30.655 24.678-67.877 42.487-108.617 50.487 78.202 6.028 92.306 36.69 98.177 70.184l-42.349-57.246c-17.738 57.539-44.787 107.455-79.773 150.684l89.927-64.505c24.271-42.658 41.148-92.681 47.447-145.943-5.325 134.282 0.762 201.69 0.762 329.679 0.153 4.898 0.241 10.658 0.241 16.438 0 21.362-1.193 42.446-3.516 63.188 65.985-0.488 127.421 16.039 182.090 43.932l31.258-52.453c-6.087-1.422-8.134-2.275-17.264-5.12-62.048-22.431-133.686-36.371-208.28-38.508l69.256-58.479s187.29 7.395 160.783 2.844zM525.636-36.941c0.466-0.002 1.018-0.003 1.57-0.003 96.567 0 185.887 31.026 258.536 83.655l63.934-65.733c-88.363-67.973-200.575-108.936-322.354-108.936-0.613 0-1.225 0.001-1.837 0.003-1.898-0.028-4.25-0.044-6.607-0.044-284.153 0-514.96 228.403-518.846 511.633 0.034 124.459 45.056 238.029 119.64 325.662l64.347-65.621c-57.619-70.187-92.556-160.909-92.579-259.791 3.815-233.201 193.848-420.874 427.714-420.874 2.259 0 4.514 0.018 6.765 0.052z"  horiz-adv-x="1051" />

    
    <glyph glyph-name="you" unicode="&#59163;" d="M320 704l384-320-384-320z"  horiz-adv-x="1024" />

    
    <glyph glyph-name="shangpin" unicode="&#58936;" d="M752-80 256-80c-54.4 0-104 41.6-113.6 96L70.4 451.2c-4.8 27.2 1.6 54.4 19.2 75.2 17.6 20.8 43.2 32 70.4 32L848 558.4c27.2 0 54.4-11.2 70.4-32 17.6-20.8 24-48 19.2-75.2L865.6 16C856-38.4 806.4-80 752-80L752-80 752-80zM160 489.6c-8 0-14.4-3.2-19.2-8-4.8-4.8-6.4-12.8-4.8-20.8L208 27.2c3.2-20.8 25.6-40 48-40L752-12.8c22.4 0 43.2 19.2 48 40l72 433.6c1.6 8 0 16-4.8 20.8-4.8 4.8-11.2 8-19.2 8L160 489.6 160 489.6 160 489.6zM300.8 289.6c-36.8 0-67.2 30.4-67.2 67.2 0 36.8 30.4 67.2 67.2 67.2 36.8 0 67.2-30.4 67.2-67.2C368 320 337.6 289.6 300.8 289.6L300.8 289.6 300.8 289.6zM300.8 356.8C300.8 356.8 300.8 356.8 300.8 356.8l0-33.6L300.8 356.8 300.8 356.8 300.8 356.8zM704 289.6c-36.8 0-67.2 30.4-67.2 67.2 0 36.8 30.4 67.2 67.2 67.2 36.8 0 67.2-30.4 67.2-67.2C771.2 320 740.8 289.6 704 289.6L704 289.6 704 289.6zM704 356.8 704 356.8l0-33.6L704 356.8 704 356.8 704 356.8zM737.6 590.4c-19.2 0-33.6 14.4-33.6 33.6 0 96-107.2 168-203.2 168-97.6 0-198.4-62.4-198.4-166.4 0-19.2-14.4-33.6-33.6-33.6-19.2 0-33.6 14.4-33.6 33.6 0 145.6 136 233.6 265.6 233.6 128 0 268.8-96 268.8-233.6C771.2 604.8 756.8 590.4 737.6 590.4L737.6 590.4 737.6 590.4zM737.6 590.4"  horiz-adv-x="1024" />

    
    <glyph glyph-name="wodeziliao" unicode="&#58916;" d="M513.433 320.763c-95.779 0-173.651 77.872-173.651 173.651s77.872 173.651 173.651 173.651c95.779 0 173.651-77.872 173.651-173.651s-77.974-173.651-173.651-173.651zM513.433 606.464c-61.806 0-112.050-50.243-112.050-112.050s50.243-112.050 112.050-112.050c61.806 0 112.050 50.243 112.050 112.050s-50.243 112.050-112.050 112.050zM761.886 27.285c-16.987 0-30.801 13.814-30.801 30.801v98.542c0 47.787-21.898 92.812-60.067 123.101-13.303 10.54-15.554 29.982-4.912 43.285 10.642 13.303 29.982 15.554 43.285 4.912 52.904-42.159 83.295-104.682 83.295-171.605 0-1.126 0-2.251-0.102-3.377 0.102-1.33 0.102-2.456 0.102-3.581v-91.277c0-16.987-13.814-30.801-30.801-30.801zM274.701 27.285c-16.987 0-30.801 13.814-30.801 30.801v91.277c0 1.228 0.102 2.456 0.102 3.684-0.102 1.023-0.102 2.149-0.102 3.275 0 66.923 30.392 129.548 83.295 171.605 13.303 10.642 32.643 8.391 43.285-4.912 10.54-13.303 8.391-32.643-4.912-43.285-38.168-30.392-60.067-75.314-60.067-123.408 0.102-0.716 0-7.368 0-7.368v-90.868c0-16.987-13.712-30.801-30.801-30.801zM792.073-6.278h-550.322c-66.718 0-121.054 54.234-121.054 121.054v565.262c0.102 66.718 54.336 121.054 121.054 121.054h550.322c66.718 0 121.054-54.234 121.054-121.054v-565.364c0-66.718-54.336-120.952-121.054-120.952zM241.751 739.491c-32.745 0-59.453-26.605-59.453-59.453v-565.364c0-32.745 26.708-59.453 59.453-59.453h550.322c32.745 0 59.453 26.708 59.453 59.453v565.364c0 32.745-26.708 59.453-59.453 59.453h-550.322z"  horiz-adv-x="1024" />

    
    <glyph glyph-name="wodeshangpin" unicode="&#59076;" d="M1074.253564 7.734893H670.832286c-15.061373 0-26.896153 11.83478-26.896153 26.896152 0 15.06006 11.83478 26.894839 26.896153 26.89484h403.421278c15.061373 0 26.894839-11.83478 26.89484-26.89484 0-15.061373-11.833467-26.896153-26.89484-26.896152z m0 0M1266.820877-126.736678h-761.661065c-44.649636 0-80.685832 36.036196-80.685831 80.680579l0.538422 7.531343 61.321022 645.474833c3.766328 41.956212 38.192511 73.155802 80.14347 73.155802h639.021647c41.957525 0 76.382395-31.19959 80.148723-73.155802l61.321022-645.474833c2.149749-21.514558-4.303437-42.495947-18.287966-59.167334-13.450046-16.676639-33.353278-26.896153-54.867836-29.044588h-6.991608zM566.476895 626.314887c-13.861085 0.072227-25.505448-10.408618-26.8909-24.201416l-61.321022-645.4814c0-17.209808 11.83478-29.58301 26.894839-29.58301h761.12133c9.685031 1.076844 16.138217 4.303437 20.981389 9.685032 4.837919 5.375028 6.453186 12.367949 5.914764 19.364809L1231.856273 601.573736c-1.210793 13.882097-12.96284 24.453555-26.896153 24.202729H566.476895v0.538422z m0 0M1101.148404 518.738155c-15.06006 0-26.894839 11.83478-26.89484 26.896153V653.211039c0 103.815656-84.45216 188.262563-188.262563 188.262563-103.816969 0-188.263876-84.446907-188.263876-188.262563v-107.576731c0-15.061373-11.83478-26.896153-26.894839-26.896153-15.061373 0-26.896153 11.83478-26.896153 26.896153V653.211039c0 133.399979 108.653575 242.053555 242.054868 242.053555 133.399979 0 242.053555-108.653575 242.053555-242.053555v-107.576731c0-15.061373-11.83478-26.896153-26.896152-26.896153z m0 0"  horiz-adv-x="2399" />

    
    <glyph glyph-name="fabuqiugou" unicode="&#58911;" d="M955.075 681.803c-20.082 24.354-53.835 38.454-88.017 38.454H737.596c-20.082 0-37.171-15.808-37.171-35.462 0-19.227 15.808-35.462 37.171-35.462h129.462c12.39 0 25.209-5.127 32.044-12.39 4.272-5.127 5.983-11.108 4.272-16.661l-72.636-293.957c-9.399-39.308-27.773-44.435-46.145-44.435H325.71l-71.355 368.73h148.689c20.082 0 37.171 15.808 37.171 35.462 0 19.227-15.808 35.462-37.171 35.462H240.683l-1.708 5.983-0.854 0.854c-12.39 58.108-65.372 99.98-125.188 99.98H83.454c-20.082 0-37.171-15.808-37.171-34.608s15.808-35.462 37.171-35.462h29.054c25.209 0 47.854-18.373 53.835-43.582l85.881-445.212c-38.454-20.082-63.664-59.817-63.664-102.543 0-53.835 37.598-99.98 90.58-112.797-2.564-8.546-3.419-15.808-3.419-24.354 0-49.563 41.871-89.726 94-89.726s94 40.162 94 89.726c0 6.834-0.854 13.247-2.564 20.082H676.5c-1.708-6.834-2.564-13.247-2.564-20.082 0-49.563 41.871-89.726 94-89.726s94 40.162 94 89.726c0 47.854-38.454 87.588-88.873 89.726-1.708 0.854-4.272 0.854-5.983 0.854H312.471c-26.917 0-48.709 20.937-48.709 46.998s21.79 46.998 48.709 46.998H784.6c58.108 0 99.126 32.899 115.788 91.436 0.854 0.854 0.854 1.708 0.854 1.708l73.918 299.084v0.854c5.127 24.781-1.281 52.553-20.082 74.345z m-184.58-633.634c11.963 0 20.937-9.399 20.937-20.082 0-11.108-9.399-20.082-20.937-20.082s-20.937 9.399-20.937 20.082c0 11.108 8.973 20.082 20.937 20.082z m-399.067 0c11.963 0 20.937-9.399 20.937-20.082 0-11.108-9.399-20.082-20.937-20.082s-20.937 9.399-20.937 20.082c0 11.108 8.973 20.082 20.937 20.082zM462.865 487.826c-14.954-14.1-14.954-36.317-0.854-50.416l82.462-78.19c6.834-6.834 15.808-10.254 25.209-10.254 10.254 0 19.227 3.419 26.917 11.108l2.564 2.564 79.045 75.626c14.1 13.247 14.1 36.317-0.854 50.416-7.691 6.834-16.661 11.108-26.917 11.108s-18.373-3.419-25.209-10.254l-18.373-17.517V604.895c0 19.227-16.661 35.462-37.171 35.462s-37.171-15.808-37.171-35.462v-132.878l-18.373 17.517c-6.834 6.834-15.808 10.254-25.209 10.254-9.399-1.281-19.227-5.127-26.063-11.963z"  horiz-adv-x="1024" />

    
    <glyph glyph-name="morentouxiang" unicode="&#59127;" d="M511.91296 373.30432m-468.02944 0a468.02944 468.02944 0 1 1 936.05888 0 468.02944 468.02944 0 1 1-936.05888 0ZM512 823.76192c59.4176 0 117.02784-11.55584 171.20768-34.49344a438.93248 438.93248 0 0 0 139.78112-94.27456 438.82496 438.82496 0 0 0 94.26944-139.78624c22.93248-54.17984 34.49856-111.79008 34.49856-171.20768s-11.56608-117.02784-34.49856-171.20768a438.91712 438.91712 0 0 0-94.26944-139.78112 438.80448 438.80448 0 0 0-139.78112-94.26944c-54.17984-22.93248-111.79008-34.49856-171.20768-34.49856s-117.02784 11.56608-171.20768 34.49856a438.9376 438.9376 0 0 0-139.78624 94.26944 438.9888 438.9888 0 0 0-94.27456 139.78112c-22.9376 54.17984-34.49344 111.79008-34.49344 171.20768s11.55584 117.02784 34.49344 171.20768a438.95296 438.95296 0 0 0 94.27456 139.78624 438.97856 438.97856 0 0 0 139.78624 94.27456c54.17984 22.93248 111.79008 34.49344 171.20768 34.49344M512 896C229.18144 896 0 666.81856 0 384s229.18144-512 512-512 511.8208 229.36064 511.8208 512S794.63936 896 512 896zM723.6608 183.35744a34.6624 34.6624 0 0 1-21.48864-7.58272c-54.00064-42.61888-120.27904-65.7408-190.17216-65.7408s-136.17152 23.12192-190.17216 65.7408a34.6624 34.6624 0 0 1-21.48864 7.58272c-32.50688 0-46.95552-41.18016-21.30944-61.23008 64.11264-50.57024 145.01888-80.73216 232.97024-80.73216s168.8576 30.16192 232.97024 80.73216c25.472 20.05504 11.19744 61.23008-21.30944 61.23008z"  horiz-adv-x="1024" />

    
    <glyph glyph-name="github" unicode="&#58880;" d="M347.8 101.2c0-4-4.6-7.2-10.4-7.2-6.6-0.6-11.2 2.6-11.2 7.2 0 4 4.6 7.2 10.4 7.2 6 0.6 11.2-2.6 11.2-7.2z m-62.2 9c-1.4-4 2.6-8.6 8.6-9.8 5.2-2 11.2 0 12.4 4s-2.6 8.6-8.6 10.4c-5.2 1.4-11-0.6-12.4-4.6z m88.4 3.4c-5.8-1.4-9.8-5.2-9.2-9.8 0.6-4 5.8-6.6 11.8-5.2 5.8 1.4 9.8 5.2 9.2 9.2-0.6 3.8-6 6.4-11.8 5.8zM505.6 880C228.2 880 16 669.4 16 392c0-221.8 139.6-411.6 339-478.4 25.6-4.6 34.6 11.2 34.6 24.2 0 12.4-0.6 80.8-0.6 122.8 0 0-140-30-169.4 59.6 0 0-22.8 58.2-55.6 73.2 0 0-45.8 31.4 3.2 30.8 0 0 49.8-4 77.2-51.6 43.8-77.2 117.2-55 145.8-41.8 4.6 32 17.6 54.2 32 67.4-111.8 12.4-224.6 28.6-224.6 221 0 55 15.2 82.6 47.2 117.8-5.2 13-22.2 66.6 5.2 135.8 41.8 13 138-54 138-54 40 11.2 83 17 125.6 17s85.6-5.8 125.6-17c0 0 96.2 67.2 138 54 27.4-69.4 10.4-122.8 5.2-135.8 32-35.4 51.6-63 51.6-117.8 0-193-117.8-208.4-229.6-221 18.4-15.8 34-45.8 34-92.8 0-67.4-0.6-150.8-0.6-167.2 0-13 9.2-28.8 34.6-24.2C872.4-19.6 1008 170.2 1008 392 1008 669.4 783 880 505.6 880zM210.4 190.2c-2.6-2-2-6.6 1.4-10.4 3.2-3.2 7.8-4.6 10.4-2 2.6 2 2 6.6-1.4 10.4-3.2 3.2-7.8 4.6-10.4 2z m-21.6 16.2c-1.4-2.6 0.6-5.8 4.6-7.8 3.2-2 7.2-1.4 8.6 1.4 1.4 2.6-0.6 5.8-4.6 7.8-4 1.2-7.2 0.6-8.6-1.4z m64.8-71.2c-3.2-2.6-2-8.6 2.6-12.4 4.6-4.6 10.4-5.2 13-2 2.6 2.6 1.4 8.6-2.6 12.4-4.4 4.6-10.4 5.2-13 2z m-22.8 29.4c-3.2-2-3.2-7.2 0-11.8 3.2-4.6 8.6-6.6 11.2-4.6 3.2 2.6 3.2 7.8 0 12.4-2.8 4.6-8 6.6-11.2 4z"  horiz-adv-x="1024" />

    


  </font>
</defs>
</svg>
